<?xml version="1.0" standalone="no"?>
<!DOCTYPE svg PUBLIC "-//W3C//DTD SVG 20010904//EN"
 "http://www.w3.org/TR/2001/REC-SVG-20010904/DTD/svg10.dtd">
<svg version="1.0" xmlns="http://www.w3.org/2000/svg"
 width="558.000000pt" height="558.000000pt" viewBox="0 0 558.000000 558.000000"
 preserveAspectRatio="xMidYMid meet">
<metadata>
Created by potrace 1.11, written by Peter Selinger 2001-2013
</metadata>
<g transform="translate(0.000000,558.000000) scale(0.100000,-0.100000)"
fill="#000000" stroke="none">
<path d="M1512 5132 c-7 -9 -10 -11 -7 -4 3 6 1 12 -4 12 -6 0 -11 -7 -11 -15
0 -8 -15 -24 -32 -35 -30 -18 -31 -26 -3 -20 5 1 2 -7 -7 -17 -12 -12 -14 -23
-8 -33 6 -10 3 -22 -12 -37 -12 -13 -18 -26 -15 -30 4 -3 -1 -15 -10 -26 -13
-15 -14 -18 -3 -12 13 8 13 7 1 -8 -10 -13 -10 -17 -1 -17 10 0 10 -3 0 -15
-6 -8 -8 -20 -4 -27 13 -20 13 -38 2 -38 -6 0 -8 -7 -4 -15 3 -8 1 -15 -3 -15
-5 0 -12 -7 -15 -16 -5 -14 -4 -15 8 -5 12 10 13 9 9 -8 -3 -12 -9 -21 -13
-21 -4 0 -6 -21 -4 -47 1 -27 3 -48 4 -48 1 0 3 -12 4 -27 2 -16 -1 -28 -5
-28 -5 0 -6 -7 -3 -15 4 -8 1 -15 -7 -15 -7 0 -9 -3 -6 -7 4 -3 1 -13 -6 -21
-8 -11 -9 -14 0 -9 14 9 14 -32 0 -50 -6 -9 -4 -15 7 -19 9 -3 13 -11 9 -17
-4 -6 -7 -26 -6 -44 0 -18 -4 -33 -9 -33 -5 0 -6 -4 -3 -10 3 -5 1 -10 -5 -10
-6 0 -8 -4 -5 -10 3 -5 2 -10 -3 -10 -5 0 -9 -7 -9 -15 0 -8 5 -15 10 -15 5 0
4 -7 -3 -15 -6 -8 -9 -18 -6 -24 3 -5 -1 -12 -10 -15 -8 -3 -12 -10 -9 -16 6
-9 -8 -14 -28 -11 -4 1 -3 -7 3 -18 13 -25 13 -31 -1 -31 -5 0 -7 5 -3 12 4 7
3 8 -4 4 -8 -5 -9 -13 -2 -26 7 -14 5 -22 -13 -34 -20 -16 -20 -17 -2 -12 19
6 19 5 3 -8 -10 -7 -18 -19 -18 -25 0 -7 -4 -9 -10 -6 -5 3 -11 -2 -12 -12 0
-10 -2 -25 -2 -33 -1 -8 -8 -14 -16 -12 -11 2 -11 0 -1 -11 9 -12 8 -16 -6
-21 -14 -6 -15 -9 -4 -15 9 -6 10 -11 2 -15 -6 -4 -11 -12 -11 -17 0 -6 5 -7
11 -3 8 4 8 0 0 -15 -8 -13 -8 -21 -1 -21 5 0 16 -16 24 -35 8 -19 22 -35 30
-35 9 0 17 -4 17 -10 1 -5 2 -14 3 -20 0 -5 6 -10 11 -11 6 0 14 -7 18 -15 5
-8 12 -12 18 -9 5 4 9 1 9 -6 0 -8 5 -7 17 2 11 10 14 10 9 2 -5 -9 0 -13 14
-13 14 0 19 -4 14 -12 -5 -7 -2 -9 8 -5 11 4 18 -1 21 -14 4 -13 10 -17 23
-12 13 5 15 3 9 -7 -6 -10 -4 -12 9 -7 14 6 15 4 5 -14 -7 -13 -7 -19 -1 -15
6 3 13 2 17 -4 4 -6 11 -7 17 -4 7 5 9 2 6 -8 -5 -11 2 -15 23 -16 48 -3 59
-5 54 -10 -3 -3 1 -12 7 -21 8 -9 3 -8 -10 3 -19 17 -22 17 -16 3 4 -13 1 -17
-15 -17 -12 0 -22 0 -23 1 -2 0 -16 -4 -31 -10 -18 -7 -26 -7 -22 -1 4 7 -2 7
-18 1 -14 -6 -28 -7 -31 -4 -3 4 -6 1 -6 -7 0 -10 -3 -10 -15 0 -9 8 -15 9
-15 2 0 -6 -9 -9 -20 -7 -11 2 -20 0 -20 -4 0 -12 -33 -8 -42 4 -5 6 -8 3 -8
-7 0 -10 -7 -15 -17 -14 -20 3 -60 -12 -84 -31 -9 -7 -19 -10 -24 -6 -4 5 -5
0 -2 -10 4 -11 3 -16 -3 -12 -18 11 -49 -5 -43 -22 4 -11 3 -14 -5 -9 -7 4
-15 1 -18 -8 -3 -9 -10 -13 -15 -10 -5 3 -9 2 -8 -3 4 -24 -2 -43 -13 -37 -7
5 -9 0 -6 -14 4 -13 0 -23 -9 -26 -12 -5 -13 -9 -4 -20 9 -11 9 -16 0 -21 -8
-6 -7 -10 2 -16 12 -7 12 -9 0 -9 -7 0 -11 -6 -7 -15 3 -10 -1 -15 -12 -15
-15 0 -15 -2 -2 -10 10 -6 11 -10 3 -10 -7 0 -13 -7 -13 -16 0 -8 -4 -13 -9
-10 -4 3 -7 -6 -5 -19 1 -14 -3 -25 -9 -25 -8 0 -8 -3 1 -12 9 -9 7 -14 -6
-25 -13 -10 -14 -12 -1 -8 12 4 15 -1 13 -25 -1 -16 3 -30 8 -30 6 0 4 -8 -3
-17 -8 -9 -9 -14 -3 -10 7 4 19 -4 28 -18 11 -17 12 -23 3 -19 -8 3 -13 -3
-13 -16 0 -11 5 -20 11 -20 5 0 3 -5 -5 -10 -8 -5 -10 -10 -3 -10 11 0 12 -24
0 -36 -3 -3 6 -21 20 -39 15 -19 28 -46 30 -61 3 -15 23 -45 48 -69 24 -24 41
-46 38 -49 -4 -3 1 -6 9 -6 11 0 14 -6 11 -20 -3 -11 0 -20 6 -20 6 0 11 -9
11 -20 0 -11 3 -19 8 -18 4 2 8 -1 10 -7 5 -14 30 -27 41 -21 4 3 16 -3 26
-14 17 -19 17 -20 1 -20 -9 0 -15 4 -11 9 3 5 1 12 -4 16 -6 3 -8 -5 -5 -20 3
-20 1 -23 -13 -18 -15 5 -15 3 2 -10 14 -11 25 -13 39 -5 12 7 16 7 12 0 -3
-6 1 -12 11 -14 16 -3 23 -26 25 -76 0 -18 3 -20 13 -12 11 10 12 7 2 -14 -8
-17 -13 -21 -15 -11 -4 17 -18 20 -27 5 -3 -5 -12 -10 -18 -10 -7 0 0 10 16
21 15 11 24 25 21 30 -4 6 -11 6 -19 -1 -9 -8 -15 -8 -20 0 -3 5 -1 10 6 10 7
0 10 3 6 6 -3 3 -16 -1 -29 -10 -21 -15 -14 -22 15 -17 5 1 6 -3 2 -8 -3 -6
-11 -9 -18 -7 -7 1 -9 1 -4 -1 4 -3 7 -9 7 -14 0 -6 -4 -8 -9 -4 -6 3 -8 -6
-5 -21 3 -15 1 -23 -5 -20 -6 4 -8 -4 -5 -19 4 -23 3 -24 -10 -13 -7 7 -11 17
-8 22 3 5 -1 6 -8 1 -10 -6 -12 -4 -6 10 5 15 4 16 -9 5 -10 -8 -15 -9 -15 -1
0 6 -4 11 -10 11 -19 0 -10 -17 16 -28 14 -7 22 -17 19 -22 -4 -6 -1 -9 7 -8
7 2 12 -3 10 -11 -3 -12 0 -12 12 -1 9 7 16 21 16 31 0 13 5 17 18 13 13 -5
14 -4 3 4 -11 8 -11 10 0 15 10 4 8 6 -4 6 -10 1 -15 6 -12 11 5 8 11 8 19 1
7 -6 16 -9 20 -6 3 3 2 0 -3 -6 -5 -6 -7 -18 -4 -25 3 -8 -1 -14 -11 -14 -9 0
-16 -4 -16 -10 0 -13 1 -13 45 6 20 8 40 13 43 10 3 -3 1 -6 -5 -6 -10 0 -26
-36 -24 -52 1 -5 -4 -8 -10 -8 -6 0 -9 7 -6 15 8 18 -6 27 -28 19 -13 -5 -14
-8 -3 -15 10 -7 9 -9 -4 -9 -9 0 -20 -5 -24 -12 -4 -7 -3 -8 4 -4 7 4 12 2 12
-3 0 -6 5 -11 11 -11 5 0 7 5 3 12 -4 6 -3 8 4 5 14 -10 8 -40 -9 -45 -11 -3
-11 -1 1 8 13 10 13 11 0 7 -8 -2 -14 -10 -12 -17 1 -6 -3 -10 -10 -7 -16 5
-48 -10 -48 -24 0 -6 7 -3 16 6 12 12 19 13 24 5 5 -9 9 -9 14 -1 11 17 22 13
23 -9 1 -13 -2 -18 -9 -14 -7 4 -8 2 -4 -5 4 -6 11 -9 16 -6 4 3 10 -1 13 -9
5 -11 0 -13 -23 -6 -27 8 -28 7 -18 -10 7 -10 17 -16 23 -13 5 4 0 -5 -12 -18
-14 -15 -21 -34 -18 -47 2 -13 -3 -25 -13 -31 -9 -5 -13 -13 -9 -17 5 -5 12
-2 17 6 9 13 14 8 12 -11 -2 -13 42 -3 46 11 4 13 3 13 -10 2 -13 -10 -18 -10
-24 -1 -5 8 -3 10 7 4 11 -6 12 -5 2 6 -17 18 -16 32 1 26 10 -4 14 0 13 14
-1 10 -6 19 -11 19 -5 0 -6 3 -3 6 4 4 13 1 21 -5 8 -7 17 -8 20 -3 3 6 -1 12
-9 16 -8 3 -15 11 -15 18 0 9 3 9 10 -2 8 -11 9 -6 5 18 -4 25 -2 32 7 28 7
-3 21 -9 31 -12 10 -4 16 -13 13 -20 -3 -7 -1 -16 4 -19 6 -4 10 -1 10 6 0 7
3 9 7 6 3 -4 -2 -16 -12 -27 -15 -16 -16 -23 -6 -33 10 -9 11 -8 6 5 -6 15 7
25 18 16 1 -2 10 4 19 12 15 14 15 17 -5 39 -12 13 -16 21 -9 17 6 -4 12 -3
12 2 0 15 -26 22 -38 10 -6 -6 -12 -6 -17 3 -6 8 -4 10 5 4 9 -6 11 -4 5 5 -6
9 -4 11 5 5 9 -6 11 -4 5 6 -6 11 -5 12 6 1 7 -6 18 -12 24 -12 5 0 4 4 -4 9
-8 5 -16 18 -17 28 -2 16 0 15 15 -4 10 -12 21 -20 25 -18 3 3 4 2 1 -2 -3 -3
1 -13 8 -21 9 -13 9 -14 0 -8 -16 9 -17 -6 -1 -22 7 -7 9 -12 4 -12 -4 0 -1
-7 8 -15 8 -9 12 -23 9 -33 -6 -16 -5 -16 14 1 19 16 21 16 42 -2 13 -11 17
-21 10 -23 -6 -2 -17 -18 -25 -36 -13 -31 -9 -38 20 -33 4 1 15 -4 23 -11 14
-11 15 -10 10 12 -4 14 -4 19 -1 13 3 -7 10 -13 16 -13 6 0 6 6 -2 15 -7 8
-16 13 -20 10 -4 -3 -14 3 -21 12 -11 13 -11 15 -1 9 8 -5 21 -1 33 10 18 17
19 16 20 -12 0 -16 2 -37 4 -47 2 -10 -1 -15 -8 -11 -7 3 -4 -1 6 -9 12 -10
14 -17 8 -22 -6 -3 -11 -3 -11 1 0 4 -10 -1 -21 -12 -21 -19 -22 -19 -15 3 9
27 -9 39 -30 19 -8 -9 -11 -16 -5 -16 6 0 11 -4 11 -10 0 -5 -6 -7 -14 -4 -8
3 -17 0 -21 -6 -3 -6 -3 -10 2 -9 21 4 34 -2 28 -13 -4 -7 1 -4 9 6 9 11 16
16 16 11 0 -4 9 0 20 10 18 16 25 14 21 -7 0 -5 4 -8 9 -8 6 0 10 -5 10 -11 0
-5 -5 -7 -11 -3 -8 5 -8 1 0 -14 7 -14 8 -23 1 -27 -6 -4 -7 -12 -1 -22 6 -12
3 -21 -12 -33 -14 -12 -17 -19 -8 -24 6 -4 10 -4 9 1 -2 4 2 9 7 10 12 4 14
-68 2 -85 -6 -7 -5 -12 2 -12 8 0 9 -5 2 -19 -6 -10 -8 -21 -4 -24 10 -10 10
-51 0 -64 -6 -9 -5 -13 2 -13 8 0 9 -5 2 -18 -5 -10 -6 -24 -1 -32 5 -8 5 -21
-1 -31 -6 -12 -5 -19 4 -23 9 -5 9 -7 0 -12 -7 -3 -13 -10 -13 -15 0 -6 6 -7
13 -3 9 6 9 4 -1 -8 -10 -13 -10 -17 0 -20 10 -4 10 -8 -1 -21 -9 -12 -10 -17
-2 -17 7 0 9 -5 6 -10 -10 -16 -15 -69 -7 -74 10 -6 8 -68 -2 -84 -4 -7 -2
-12 5 -12 8 0 8 -4 -2 -16 -10 -13 -10 -17 0 -24 8 -5 10 -13 5 -21 -11 -18
-13 -49 -2 -43 12 8 10 -10 -4 -24 -9 -9 -9 -12 1 -12 7 0 9 -5 6 -10 -12 -19
-14 -69 -4 -76 6 -4 6 -11 -2 -20 -9 -11 -9 -14 0 -14 8 0 9 -5 2 -18 -5 -10
-6 -24 -1 -32 5 -8 5 -21 -1 -31 -6 -12 -5 -19 4 -22 9 -4 8 -8 -3 -16 -13
-10 -13 -11 0 -11 13 0 13 -1 0 -10 -13 -9 -13 -11 -1 -19 12 -8 12 -12 2 -25
-10 -12 -10 -16 -2 -16 7 0 10 -4 7 -9 -3 -4 2 -17 12 -28 19 -22 68 -51 58
-35 -3 5 1 13 10 16 10 4 13 2 8 -7 -5 -8 -2 -8 9 2 9 7 14 17 11 22 -3 5 -1
9 3 9 5 0 10 17 11 37 2 21 5 39 7 42 3 2 1 9 -5 16 -6 7 -4 21 5 38 8 16 9
25 3 21 -7 -5 -9 0 -6 13 3 11 1 28 -5 38 -7 13 -6 16 3 10 9 -6 9 -3 1 13 -8
15 -8 22 2 25 9 4 8 8 -3 16 -13 9 -12 11 5 11 18 1 18 2 4 10 -13 8 -15 17
-9 44 5 22 4 38 -3 45 -8 8 -7 11 1 11 9 0 10 5 2 19 -8 16 -6 22 6 29 14 8
14 10 2 15 -10 3 -13 15 -10 36 3 19 8 28 16 24 6 -3 2 3 -8 15 -11 12 -15 22
-9 22 11 0 11 29 -1 48 -4 7 -2 12 6 12 9 0 9 3 -2 10 -10 6 -11 10 -2 10 6 0
12 5 12 11 0 5 -4 8 -9 5 -5 -4 -6 9 -1 28 5 22 3 39 -3 45 -8 8 -8 11 1 11 7
0 12 5 12 11 0 5 -4 7 -10 4 -6 -4 -7 2 -2 17 9 28 8 70 -3 88 -6 10 -4 12 8
7 16 -6 15 -4 0 20 -10 15 -12 24 -5 20 6 -5 12 -4 12 2 0 5 -6 12 -12 14 -10
4 -10 6 0 6 9 1 10 6 3 19 -6 11 -6 24 -1 32 5 8 5 19 -1 26 -6 8 -4 14 7 18
11 4 13 10 6 19 -5 6 -9 19 -9 27 -1 8 -4 23 -8 33 -4 10 -3 17 4 17 6 0 11 5
11 11 0 5 -4 7 -10 4 -7 -4 -7 3 0 19 7 19 6 26 -3 26 -8 0 -7 4 3 10 13 8 13
10 1 10 -11 0 -10 4 5 16 10 8 14 13 8 10 -15 -8 -25 19 -13 31 6 6 6 20 -1
38 -9 23 -8 26 4 22 10 -4 13 -1 9 8 -3 8 -10 12 -17 8 -7 -5 -7 -2 1 8 8 9 9
20 3 29 -13 21 -12 38 1 20 9 -12 10 -11 6 7 -3 12 0 25 7 28 8 3 8 7 -1 11
-7 3 -13 10 -13 15 0 6 6 7 13 3 7 -5 6 0 -3 11 -14 17 -13 18 4 12 14 -6 17
-4 12 8 -3 9 1 18 9 21 8 4 13 10 10 14 -3 5 -2 11 3 14 4 2 8 -6 8 -19 0 -15
-5 -21 -13 -18 -9 4 -11 0 -7 -11 3 -9 10 -14 14 -11 4 3 11 -2 14 -11 4 -12
2 -15 -9 -11 -8 4 -17 1 -21 -5 -4 -6 -3 -8 2 -5 6 3 16 2 24 -3 12 -7 9 -11
-10 -20 -21 -9 -22 -10 -3 -6 13 2 24 -2 27 -11 3 -8 2 -12 -3 -9 -5 3 -12 -1
-15 -10 -3 -8 -2 -12 3 -9 17 10 18 -30 2 -49 -9 -11 -11 -16 -5 -13 7 4 15 0
18 -9 3 -8 2 -12 -3 -9 -5 3 -12 1 -16 -5 -3 -5 -2 -10 3 -10 6 0 8 -10 4 -22
-4 -15 -2 -19 7 -13 10 6 11 3 3 -11 -11 -22 -10 -74 3 -93 5 -10 4 -12 -4 -7
-14 9 -11 -30 3 -53 6 -9 5 -12 -1 -8 -13 8 -12 -96 2 -105 7 -5 6 -8 -1 -8
-13 0 -13 -78 0 -99 6 -9 5 -12 -1 -8 -13 8 -12 -91 1 -112 6 -9 5 -12 -1 -8
-7 4 -10 -12 -9 -47 0 -30 4 -52 8 -49 5 2 8 -4 8 -13 0 -10 3 -14 7 -11 3 4
12 -1 20 -11 8 -9 12 -11 8 -5 -4 8 0 13 9 13 9 0 16 7 16 15 0 8 5 15 11 15
8 0 7 6 -2 17 -8 9 -9 14 -3 10 16 -9 16 212 0 232 -9 12 -8 13 3 6 11 -6 13
-2 9 18 -3 15 0 28 6 31 7 3 6 5 -2 5 -7 1 -10 6 -7 11 4 6 1 18 -7 27 -8 10
-8 14 -1 10 6 -4 14 -3 18 3 3 5 3 10 -2 10 -9 0 -9 260 0 284 4 9 -1 17 -11
19 -12 3 -10 5 6 6 21 1 22 2 8 17 -12 11 -13 20 -6 34 7 13 6 20 -3 23 -8 3
-6 10 8 20 19 16 19 16 -5 11 -17 -4 -21 -3 -12 4 8 5 12 26 11 54 -1 24 1 49
4 55 4 6 1 14 -5 16 -10 4 -10 6 0 6 10 1 10 6 2 21 -6 11 -7 20 -1 20 5 0 12
7 15 16 5 14 4 15 -9 4 -20 -16 -19 -6 1 14 10 10 11 16 4 16 -7 0 11 22 40
50 29 27 56 47 61 44 5 -3 8 0 7 8 -2 7 2 12 9 11 6 -2 15 6 18 17 4 11 11 18
16 15 5 -4 9 -1 9 5 0 6 4 9 9 5 5 -3 12 3 16 14 3 11 13 25 23 33 16 12 16
11 3 -7 -8 -11 1 -4 19 15 18 19 37 34 42 32 6 -2 8 5 4 14 -5 12 -2 15 10 10
12 -5 15 -2 10 9 -3 9 -2 13 3 10 5 -3 12 -1 16 5 4 6 11 7 17 4 7 -4 8 -2 4
5 -8 12 18 44 28 34 3 -4 6 1 6 10 0 10 6 17 13 17 7 0 20 9 30 20 19 22 41
27 34 8 -2 -7 -10 -12 -17 -10 -11 3 -11 0 0 -12 12 -16 5 -21 -22 -17 -4 0
-5 -6 -2 -14 4 -9 0 -15 -10 -15 -14 0 -21 -17 -17 -42 0 -4 -7 -4 -17 -1 -9
3 -14 2 -9 -2 4 -5 0 -17 -10 -27 -9 -10 -14 -21 -10 -24 3 -3 -2 -14 -11 -25
-9 -11 -17 -23 -18 -27 -1 -11 -14 -45 -25 -64 -6 -12 -6 -18 2 -18 8 0 8 -5
-1 -15 -10 -12 -10 -15 1 -15 11 0 11 -2 -1 -10 -8 -5 -10 -10 -5 -10 6 0 3
-5 -5 -10 -13 -8 -13 -10 -1 -10 11 0 9 -4 -5 -15 -16 -13 -17 -16 -4 -25 8
-5 10 -10 5 -10 -6 0 -11 -11 -11 -25 0 -14 4 -25 8 -25 4 0 8 -6 8 -14 0 -8
10 -18 23 -22 35 -12 47 -13 47 -3 0 5 8 13 18 16 20 8 82 70 82 83 0 5 8 7
18 3 9 -3 14 -3 10 2 -4 4 0 14 8 22 8 9 13 22 10 30 -3 8 -1 11 4 8 9 -6 14
8 11 28 0 4 4 7 10 7 5 0 8 4 4 9 -3 5 0 13 6 16 5 4 8 14 5 22 -4 9 -2 11 6
7 8 -5 9 -2 5 9 -3 9 -1 19 5 23 7 4 6 9 -3 15 -11 7 -10 9 3 9 11 0 15 5 12
15 -4 8 -1 15 6 15 6 0 9 4 6 9 -3 5 0 22 7 39 l12 30 12 -24 c9 -19 8 -27 -2
-37 -9 -10 -10 -19 -3 -32 8 -14 8 -16 -2 -10 -10 6 -12 4 -7 -8 3 -9 1 -18
-6 -21 -9 -3 -9 -5 0 -5 6 -1 9 -10 6 -21 -3 -11 -10 -17 -17 -13 -6 4 -5 -1
3 -10 11 -14 11 -17 0 -17 -11 0 -11 -2 1 -10 12 -8 12 -10 -5 -10 -13 0 -16
-3 -8 -8 13 -8 12 -29 -1 -51 -6 -10 -5 -12 2 -7 16 10 15 -7 0 -23 -11 -11
-10 -12 2 -6 9 5 7 -1 -5 -15 -11 -13 -14 -20 -8 -16 7 4 13 2 13 -3 0 -6 -5
-11 -11 -11 -6 0 -8 -8 -4 -19 3 -11 2 -22 -3 -25 -5 -3 -8 -18 -8 -33 1 -15
-2 -38 -6 -50 -4 -12 -3 -25 2 -28 5 -3 6 -13 3 -22 -5 -12 -3 -14 8 -8 12 8
12 6 1 -8 -8 -9 -11 -21 -7 -27 3 -5 1 -10 -5 -10 -6 0 -9 -4 -6 -9 4 -5 0
-12 -6 -14 -10 -4 -10 -6 0 -6 6 -1 12 -6 12 -12 0 -5 -6 -7 -12 -3 -7 4 -4
-3 7 -16 13 -15 14 -20 5 -16 -8 5 -4 -2 10 -15 32 -30 67 -84 49 -74 -8 3 -6
0 4 -8 9 -8 17 -19 17 -26 0 -6 7 -11 16 -11 9 0 12 -5 8 -12 -4 -7 -4 -10 1
-6 4 4 20 1 35 -7 15 -8 31 -11 35 -7 5 4 5 -1 2 -11 -4 -11 -3 -16 3 -12 6 3
13 -1 16 -9 3 -9 10 -13 15 -10 5 3 9 1 9 -4 0 -5 12 -14 26 -20 14 -7 23 -8
19 -2 -3 5 -1 10 4 10 6 0 11 -8 11 -17 0 -10 4 -14 8 -8 9 12 42 16 42 5 0
-5 8 -6 19 -3 10 3 22 0 25 -5 3 -6 16 -8 28 -4 16 4 19 2 13 -9 -7 -11 -5
-11 10 1 17 14 18 13 12 -2 -4 -12 -2 -15 9 -11 8 3 14 -1 14 -8 0 -11 3 -11
10 1 6 10 10 11 10 3 0 -7 5 -13 11 -13 5 0 7 4 4 10 -4 6 1 7 11 3 11 -4 13
-8 6 -11 -7 -2 -12 -13 -12 -24 0 -17 3 -18 15 -8 12 10 16 9 22 -6 4 -11 12
-23 18 -29 7 -5 15 -19 19 -29 5 -15 4 -17 -7 -7 -12 9 -13 7 -9 -14 2 -15 9
-22 16 -18 7 5 7 2 -1 -8 -7 -9 -8 -20 -3 -29 5 -8 7 -17 4 -21 -2 -4 4 -6 14
-5 9 0 16 -5 14 -12 -1 -8 2 -11 8 -7 5 3 10 14 10 23 0 13 2 14 9 4 6 -10 10
-8 16 10 12 38 13 72 1 87 -8 11 -8 13 1 8 6 -4 13 -2 15 3 2 7 11 5 23 -5 11
-8 13 -13 5 -10 -11 4 -15 -2 -16 -20 -1 -14 2 -22 7 -19 5 3 6 -2 3 -10 -9
-23 -10 -157 -2 -162 5 -3 5 -11 1 -17 -4 -7 -6 -25 -4 -41 2 -21 0 -26 -11
-20 -10 6 -11 5 -2 -7 8 -9 12 -78 11 -210 0 -107 3 -201 7 -207 4 -7 3 -12
-2 -12 -16 0 -1 -44 22 -63 11 -10 15 -15 7 -11 -9 5 -12 3 -7 -5 4 -6 12 -8
18 -5 6 4 14 0 19 -7 6 -10 9 -10 9 -2 0 7 7 10 17 6 10 -4 14 -2 9 5 -3 6 1
15 9 19 9 5 17 23 19 41 3 17 7 36 11 42 3 5 1 10 -5 10 -8 0 -8 6 0 20 8 14
8 20 0 20 -8 0 -8 6 0 20 8 14 8 20 0 20 -8 0 -8 6 0 20 8 14 8 20 0 20 -8 0
-8 6 0 20 8 14 8 20 0 20 -8 0 -8 6 0 20 8 14 8 20 0 20 -6 0 -8 5 -5 10 4 6
12 7 18 3 9 -5 9 -3 0 8 -9 12 -10 18 -1 27 8 8 7 13 -6 18 -14 5 -15 9 -4 15
10 7 10 9 0 9 -10 0 -10 5 -2 20 8 15 8 20 -2 20 -9 0 -9 3 2 10 8 5 20 10 25
10 6 0 3 -5 -5 -10 -9 -6 -10 -10 -3 -10 6 0 10 -8 8 -18 -1 -10 3 -29 11 -42
11 -20 13 -21 14 -7 0 11 4 15 12 11 8 -5 9 -2 5 9 -3 10 -3 17 1 17 5 0 7 16
6 35 -2 24 0 33 8 29 7 -5 8 -2 2 7 -13 21 -13 229 0 229 8 0 8 3 1 8 -13 8
-13 22 -1 41 6 9 5 12 -2 8 -11 -8 -11 61 1 80 4 6 3 14 -2 18 -6 3 -7 15 -1
29 6 16 5 28 -3 37 -7 7 -1 5 12 -6 l24 -20 -6 23 c-3 13 -3 21 0 18 3 -3 12
2 20 10 8 8 19 12 24 8 5 -3 8 0 7 7 -3 13 3 15 43 18 12 1 17 5 13 13 -5 8 0
9 14 6 15 -4 22 -2 22 9 0 8 4 12 9 8 5 -3 13 -1 16 5 5 8 11 7 21 -1 12 -10
13 -9 8 6 -5 11 -4 16 3 12 12 -8 54 38 45 49 -4 4 -2 4 5 0 7 -4 21 2 32 13
11 11 22 17 25 13 3 -3 6 0 6 7 0 7 4 9 10 6 5 -3 7 0 5 7 -3 8 3 23 14 35 11
11 17 24 14 27 -4 3 -1 6 5 6 7 0 11 3 11 8 -4 25 3 42 19 42 14 0 14 2 3 9
-13 8 -13 12 0 27 8 10 9 15 2 11 -8 -5 -11 0 -10 13 1 11 4 20 7 20 4 0 7 7
7 15 0 8 -4 12 -9 9 -4 -3 -8 0 -8 5 0 6 5 11 11 11 8 0 8 4 0 13 -8 10 -7 17
1 25 7 7 8 12 2 12 -5 0 -10 9 -11 20 -1 13 2 18 9 14 7 -5 8 -2 4 5 -5 7 -15
10 -25 7 -12 -5 -11 -2 3 9 11 8 15 15 8 15 -6 0 -9 7 -5 17 5 12 3 14 -8 8
-11 -7 -11 -5 1 10 12 15 12 17 1 10 -11 -6 -13 -4 -8 8 3 9 -1 23 -9 31 -8 9
-15 18 -14 21 1 25 -1 35 -9 31 -5 -4 -7 3 -4 14 3 12 -1 22 -11 26 -9 3 -13
10 -10 15 3 5 -3 9 -12 9 -14 0 -15 3 -6 12 9 9 6 17 -12 33 -13 12 -27 32
-31 44 -3 12 -11 18 -17 15 -8 -5 -9 -1 -5 10 4 9 3 15 -1 13 -4 -3 -13 1 -20
9 -10 11 -10 14 0 14 7 0 1 8 -12 17 -35 24 -70 60 -70 72 0 5 5 13 12 17 8 5
9 2 4 -11 -5 -15 -4 -16 9 -5 12 10 15 10 15 -4 0 -10 5 -14 10 -11 5 3 10 2
10 -3 0 -6 9 -8 20 -5 15 4 20 0 21 -13 0 -11 3 -14 5 -7 3 7 12 9 20 6 7 -3
11 -9 8 -14 -3 -5 5 -9 17 -9 12 0 28 -8 35 -17 9 -12 13 -14 14 -5 0 7 5 10
10 7 6 -4 8 -11 5 -16 -4 -5 1 -9 9 -9 9 0 16 -4 16 -8 0 -5 16 -14 35 -22 19
-7 32 -17 29 -22 -3 -4 4 -8 15 -8 10 0 21 -4 23 -9 2 -5 10 -11 18 -13 8 -2
21 -9 28 -16 8 -7 18 -10 23 -7 5 4 9 0 9 -9 0 -9 8 -13 25 -11 14 1 28 -2 32
-8 4 -6 1 -7 -7 -2 -9 5 -11 4 -6 -4 4 -6 12 -8 18 -5 6 4 14 0 19 -7 7 -11 9
-9 9 6 1 19 1 19 11 2 10 -18 11 -18 32 0 11 10 17 13 14 6 -4 -6 -3 -14 3
-18 5 -3 10 -1 10 5 0 7 7 9 16 6 8 -3 13 -2 10 3 -3 5 2 15 11 22 14 12 16
12 8 -1 -10 -17 29 13 58 45 10 11 15 13 11 5 -6 -12 -5 -13 8 -3 8 7 19 9 23
5 5 -4 6 -2 3 3 -3 6 0 16 8 23 8 7 14 10 14 7 0 -2 11 5 24 16 15 13 22 27
19 37 -4 9 -2 13 4 9 6 -4 13 -1 16 5 4 10 7 11 18 1 7 -7 18 -13 23 -13 6 0
0 7 -13 16 -18 13 -20 18 -10 25 19 12 29 11 29 -2 0 -5 -6 -7 -12 -3 -10 5
-10 3 0 -7 11 -12 14 -12 21 0 6 9 8 5 9 -13 0 -14 -5 -26 -11 -26 -6 0 -7 -3
-4 -6 4 -4 14 -1 23 7 16 13 16 12 5 -8 -9 -18 -9 -23 1 -23 9 0 9 -3 -2 -10
-13 -9 -13 -10 0 -10 13 0 13 -1 0 -10 -12 -8 -12 -10 5 -10 l20 -1 -20 -15
c-13 -11 -16 -18 -8 -21 11 -4 9 -75 -3 -95 -3 -4 0 -8 7 -8 8 0 8 -4 -1 -15
-10 -12 -10 -15 0 -15 10 0 10 -3 0 -15 -10 -12 -10 -15 0 -15 10 0 10 -3 1
-14 -8 -10 -9 -16 -1 -21 5 -3 10 -21 10 -38 0 -24 3 -28 10 -17 5 8 10 11 10
5 1 -5 8 3 16 18 11 20 12 32 5 41 -6 7 -8 16 -4 20 11 11 11 118 0 141 -10
18 -9 19 8 5 17 -14 18 -13 8 5 -5 11 -9 36 -8 55 2 19 -3 38 -9 42 -7 5 -3 8
9 8 11 0 15 3 10 8 -9 6 -12 41 -6 90 0 6 6 12 12 12 5 0 7 -5 3 -11 -3 -6 0
-15 7 -20 11 -7 10 -9 -5 -9 -14 0 -16 -3 -8 -12 6 -7 9 -30 8 -51 -2 -21 1
-40 5 -43 5 -2 4 -15 0 -27 -7 -19 -5 -23 10 -24 10 -1 19 3 19 9 0 6 8 17 18
25 9 8 12 12 5 9 -6 -4 -14 -2 -17 3 -3 5 2 12 12 16 16 7 15 8 -3 15 l-20 9
20 1 c20 1 20 1 1 15 -17 13 -17 15 -3 15 9 0 14 6 12 13 -9 24 -12 87 -5 87
5 0 6 9 3 20 -3 11 1 28 8 37 10 12 10 14 2 9 -7 -4 -13 -4 -14 1 -4 42 -3 73
2 73 4 0 3 16 -1 35 -6 25 -4 38 6 46 8 6 11 15 8 20 -3 5 2 6 10 3 9 -3 16
-1 16 5 0 6 9 11 20 11 10 0 24 9 30 20 6 11 16 17 25 14 10 -4 15 0 15 12 0
16 2 17 10 4 8 -13 10 -12 10 2 0 10 3 18 8 17 16 -2 52 14 52 23 0 6 9 8 20
5 11 -3 18 -1 14 4 -3 5 0 9 6 9 6 0 8 5 5 10 -4 6 -1 9 6 8 7 -2 23 12 36 31
12 19 23 30 23 25 0 -5 4 -3 9 4 4 7 17 15 27 16 10 2 18 9 16 15 -1 7 6 11
15 9 10 -2 18 3 19 10 3 25 5 27 14 12 8 -12 10 -10 10 8 0 13 4 21 9 18 5 -3
11 3 14 14 3 13 1 18 -6 13 -7 -3 -1 7 13 23 14 15 17 22 8 15 -22 -16 -23 -2
-3 25 17 23 19 38 3 28 -7 -5 -8 -3 -3 7 12 18 14 49 3 43 -4 -3 -8 7 -8 21 0
20 -4 26 -16 21 -8 -3 -12 -2 -9 4 3 6 1 10 -4 10 -6 0 -11 7 -11 17 0 9 -3
13 -7 9 -4 -3 -13 4 -20 16 -7 13 -12 17 -13 10 0 -7 -12 0 -26 15 -14 15 -22
22 -18 14 5 -9 -2 -7 -18 5 -14 10 -23 24 -20 29 3 6 -1 4 -10 -3 -13 -10 -16
-9 -21 10 -5 18 -9 20 -19 10 -9 -9 -16 -8 -32 6 -11 9 -16 11 -12 5 5 -9 2
-11 -8 -7 -9 3 -16 10 -16 16 0 5 -10 6 -21 3 -16 -5 -19 -4 -14 6 6 9 3 11
-8 6 -10 -3 -17 -2 -17 3 0 6 -5 10 -11 10 -5 0 -7 -5 -3 -12 4 -6 -3 -4 -15
5 -13 8 -30 13 -37 10 -8 -3 -14 1 -14 8 0 7 -3 9 -7 6 -3 -4 -13 -1 -21 6
-13 10 -14 9 -7 -2 6 -11 4 -13 -8 -8 -9 3 -19 2 -22 -3 -3 -5 -12 -7 -20 -4
-8 4 -12 11 -8 18 4 7 2 7 -8 -1 -12 -10 -18 -10 -27 -1 -9 9 -12 9 -12 0 0
-8 -7 -9 -25 -2 -14 5 -25 6 -25 2 0 -4 -5 0 -10 8 -8 12 -10 12 -10 1 0 -11
-3 -11 -17 0 -15 12 -16 12 -8 -1 7 -12 6 -13 -6 -3 -10 8 -45 11 -105 9 -49
-1 -95 2 -102 7 -9 7 -11 5 -6 -8 5 -13 4 -16 -4 -11 -18 11 -53 16 -47 7 3
-5 -2 -12 -11 -15 -8 -3 -12 -2 -9 4 3 5 -4 8 -15 7 -11 -1 -20 -6 -20 -12 0
-5 -5 -3 -10 5 -7 11 -10 11 -10 2 0 -7 -4 -10 -10 -7 -5 3 -10 0 -10 -7 -1
-9 -4 -8 -13 3 -10 14 -14 14 -25 3 -7 -7 -19 -11 -27 -8 -8 4 -15 1 -15 -6 0
-6 -5 -8 -11 -4 -6 3 -15 0 -20 -7 -7 -12 -9 -12 -9 0 0 9 -4 10 -12 4 -7 -6
-27 -9 -45 -8 -18 1 -29 -3 -26 -8 3 -5 -3 -7 -14 -5 -10 1 -32 -5 -47 -16
-16 -10 -26 -14 -23 -9 4 5 0 10 -8 10 -8 0 -14 -3 -13 -6 2 -19 -4 -22 -19
-10 -9 8 -14 9 -10 3 8 -14 -9 -22 -40 -19 -12 1 -20 -2 -18 -6 3 -4 -4 -9
-15 -12 -10 -3 -21 0 -24 7 -3 7 -5 7 -5 -1 -1 -7 -8 -13 -17 -13 -9 0 -12 -5
-8 -12 5 -8 0 -7 -11 2 -10 8 -16 10 -12 4 4 -8 -8 -14 -36 -19 -23 -4 -45 -7
-49 -6 -5 0 -8 -4 -8 -11 0 -6 -3 -8 -7 -5 -3 4 -13 1 -21 -6 -13 -10 -15 -9
-8 3 5 10 3 10 -6 -2 -11 -12 -18 -14 -32 -6 -13 7 -17 7 -12 0 3 -5 -1 -12
-8 -15 -8 -3 -17 -1 -20 6 -2 7 -5 4 -5 -6 -1 -14 -6 -17 -23 -12 -16 6 -20 4
-15 -8 4 -12 2 -14 -10 -10 -8 3 -19 0 -24 -8 -7 -12 -9 -12 -9 0 0 11 -4 10
-16 -5 -8 -10 -12 -12 -8 -4 7 12 5 13 -8 3 -8 -7 -19 -9 -23 -5 -5 4 -5 1 -1
-5 5 -9 0 -13 -13 -13 -11 0 -23 -5 -26 -11 -4 -6 -13 -8 -21 -5 -8 3 -14 1
-14 -5 0 -6 -5 -7 -10 -4 -6 3 -13 0 -16 -9 -3 -8 -13 -17 -21 -20 -14 -6 -14
-4 -2 11 7 10 1 7 -14 -6 -15 -14 -27 -21 -27 -17 0 5 -7 3 -15 -4 -8 -6 -19
-9 -24 -5 -7 3 -8 0 -5 -9 3 -9 1 -16 -5 -16 -7 0 -21 -9 -33 -20 -32 -30 -50
-26 -37 7 5 14 7 33 5 40 -4 9 -1 11 6 7 8 -5 9 -2 5 10 -4 9 -3 15 2 12 5 -3
11 1 15 9 3 8 2 15 -2 15 -4 0 -9 11 -10 25 -1 18 3 25 16 25 14 0 15 2 2 9
-8 6 -18 7 -23 4 -5 -3 -4 3 1 14 14 25 3 38 -31 39 -22 1 -27 -2 -22 -15 3
-8 3 -12 -1 -8 -4 4 -13 -2 -21 -13 -8 -11 -21 -20 -29 -20 -8 0 -14 -7 -14
-16 0 -9 -5 -12 -12 -8 -8 5 -9 2 -5 -9 4 -10 0 -20 -11 -26 -9 -6 -12 -11 -7
-11 6 0 3 -5 -5 -10 -22 -14 -30 -12 -24 5 4 8 1 15 -5 15 -6 0 -11 5 -11 11
0 5 6 7 13 4 6 -4 1 3 -13 14 -16 14 -19 19 -7 15 21 -8 23 12 1 20 -12 5 -13
10 -5 19 7 9 7 17 1 23 -6 6 -11 22 -12 37 -1 15 -6 27 -11 27 -5 0 -7 11 -5
24 3 16 0 27 -10 31 -8 3 -12 12 -8 20 3 9 -1 18 -9 22 -12 4 -13 9 -4 19 8
10 8 14 0 14 -6 0 -10 3 -10 8 4 21 -2 32 -13 26 -8 -5 -7 0 2 11 12 15 12 17
1 10 -11 -6 -13 -4 -8 8 3 10 2 17 -4 17 -6 0 -7 4 -4 10 8 13 -19 52 -31 42
-4 -4 -2 1 5 11 7 9 9 17 4 17 -5 0 -9 10 -10 22 -1 11 -6 24 -11 27 -5 3 -8
16 -7 28 1 12 -5 25 -13 28 -8 3 -12 12 -9 19 3 8 1 16 -5 18 -6 2 -11 16 -10
31 0 15 -4 24 -8 22 -8 -5 -36 63 -32 78 1 4 -3 7 -9 7 -6 0 -9 7 -6 15 4 8 1
17 -5 21 -7 5 -8 2 -3 -6 5 -8 4 -11 -3 -6 -6 4 -9 13 -5 21 3 8 0 15 -5 15
-6 0 -9 9 -7 20 2 11 -1 20 -7 20 -6 0 -9 3 -5 6 3 3 -3 16 -14 27 -11 12 -16
23 -10 25 5 2 -1 14 -14 28 -15 16 -21 32 -17 46 4 15 2 19 -7 13 -9 -5 -12
-2 -9 11 2 11 -2 24 -10 29 -7 6 -14 20 -15 32 0 12 -4 20 -7 18 -3 -1 -11 3
-18 11 -8 9 -9 14 -2 14 6 0 -2 12 -17 26 -15 15 -19 20 -9 13 16 -12 15 -8
-5 23 -13 20 -27 34 -31 32 -5 -3 -8 4 -8 15 0 12 -4 21 -9 21 -5 0 -16 12
-26 26 -11 18 -12 24 -4 18 12 -6 12 -5 0 9 -7 9 -18 14 -24 10 -5 -3 -7 -1
-3 5 3 6 2 13 -4 17 -6 4 -8 11 -5 16 4 5 -2 6 -11 2 -14 -5 -16 -3 -11 11 4
10 3 15 -3 11 -11 -7 -32 29 -23 39 3 3 -1 6 -11 6 -9 0 -15 4 -12 8 3 5 -4
15 -15 22 -10 8 -19 21 -19 29 0 8 -3 12 -6 8 -7 -6 -44 24 -40 32 1 3 -12 20
-31 38 -18 18 -33 30 -33 27 0 -4 -13 8 -29 25 -16 17 -34 31 -41 31 -6 0 -8
5 -5 10 3 6 -3 10 -14 10 -12 0 -21 5 -21 10 0 6 -6 9 -12 8 -7 -2 -12 3 -10
10 1 8 -2 11 -8 7 -5 -3 -10 0 -10 7 0 9 -3 9 -10 -2 -8 -13 -10 -12 -10 3 0
10 -4 15 -10 12 -5 -3 -10 -2 -10 3 0 6 -9 8 -20 5 -13 -3 -20 0 -20 8 0 12
-2 12 -9 0 -7 -11 -10 -9 -16 9 -6 18 -9 20 -16 9 -7 -12 -9 -11 -9 1 0 13 -1
13 -10 0 -8 -11 -12 -12 -18 -3 -6 9 -11 8 -20 -5z m-472 -2252 c0 -5 -2 -10
-4 -10 -3 0 -8 5 -11 10 -3 6 -1 10 4 10 6 0 11 -4 11 -10z m3372 -67 c-6 -2
-9 -10 -6 -15 4 -7 2 -8 -5 -4 -13 9 -5 26 12 25 9 0 8 -2 -1 -6z m-5 -50 c-4
-3 -2 -12 4 -19 7 -8 6 -14 -2 -20 -7 -4 -9 -3 -5 4 3 6 2 13 -4 17 -10 6 -5
25 7 25 4 0 3 -3 0 -7z m-80 -50 c-4 -3 -2 -12 5 -20 8 -11 7 -12 -6 -7 -9 3
-16 9 -16 13 0 9 11 21 18 21 3 0 2 -3 -1 -7z m-2942 -345 c5 4 5 1 1 -6 -6
-10 -11 -10 -22 -1 -8 6 -14 14 -14 16 0 3 6 0 13 -6 8 -6 18 -7 22 -3z m-20
-36 c-3 -3 -11 0 -18 7 -9 10 -8 11 6 5 10 -3 15 -9 12 -12z m-40 -2 c3 -5 1
-10 -4 -10 -6 0 -11 5 -11 10 0 6 2 10 4 10 3 0 8 -4 11 -10z m78 -95 c-3 -9
-8 -14 -10 -11 -3 3 -2 9 2 15 9 16 15 13 8 -4z m-91 -37 c-8 -8 -9 -4 -5 13
4 13 8 18 11 10 2 -7 -1 -18 -6 -23z m58 -2 c0 -7 -7 -19 -15 -26 -8 -7 -12
-17 -9 -24 3 -6 -2 -2 -11 9 -12 16 -18 17 -24 7 -7 -11 -9 -11 -14 1 -4 11 1
14 18 12 13 -1 26 4 29 12 3 8 1 11 -4 8 -6 -3 -10 -1 -10 4 0 6 9 11 20 11
11 0 20 -6 20 -14z m84 5 c3 -4 -4 -7 -14 -6 -27 2 -33 10 -10 12 11 1 22 -2
24 -6z m74 -26 c-3 -3 -9 2 -12 12 -6 14 -5 15 5 6 7 -7 10 -15 7 -18z m-63
-15 c3 -5 1 -10 -4 -10 -6 0 -11 5 -11 10 0 6 2 10 4 10 3 0 8 -4 11 -10z
m107 -63 c-7 -8 -10 -17 -7 -20 3 -4 2 -5 -2 -2 -11 8 -13 36 -2 29 5 -3 9 -1
9 4 0 6 -7 12 -15 16 -8 3 -15 10 -15 16 0 6 10 2 22 -9 16 -16 18 -23 10 -34z
m-102 23 c0 13 1 13 10 0 5 -8 10 -19 10 -25 0 -5 -5 -3 -10 5 -9 13 -10 13
-10 0 0 -13 -1 -13 -10 0 -5 8 -10 20 -10 25 0 6 5 3 10 -5 9 -13 10 -13 10 0z
m40 0 c0 -5 -2 -10 -4 -10 -3 0 -8 5 -11 10 -3 6 -1 10 4 10 6 0 11 -4 11 -10z
m31 -93 c-10 -9 -11 -8 -5 6 3 10 9 15 12 12 3 -3 0 -11 -7 -18z m-21 -41 c0
-3 -4 -8 -10 -11 -5 -3 -10 -1 -10 4 0 6 5 11 10 11 6 0 10 -2 10 -4z m10 -56
c0 -5 -5 -10 -11 -10 -5 0 -7 5 -4 10 3 6 8 10 11 10 2 0 4 -4 4 -10z m1435
-270 c3 -5 2 -10 -4 -10 -5 0 -13 5 -16 10 -3 6 -2 10 4 10 5 0 13 -4 16 -10z
m280 -40 c3 -5 1 -10 -4 -10 -6 0 -11 5 -11 10 0 6 2 10 4 10 3 0 8 -4 11 -10z
m0 -60 c15 -17 16 -20 3 -15 -9 4 -19 1 -24 -6 -4 -7 -3 -10 4 -5 6 3 13 2 17
-4 3 -5 1 -10 -6 -10 -8 0 -8 -4 1 -15 10 -12 10 -15 -1 -15 -9 0 -10 -3 -4
-8 11 -8 16 -52 6 -52 -4 0 -7 -9 -7 -20 0 -11 6 -20 13 -20 7 0 13 -5 13 -11
0 -5 -4 -8 -9 -4 -11 6 -9 -44 2 -62 6 -9 3 -11 -9 -6 -14 5 -15 3 -6 -14 8
-14 8 -23 0 -31 -9 -9 -7 -12 8 -13 18 0 18 -1 -1 -9 -31 -14 -36 -11 -25 10
8 15 8 20 -2 20 -9 0 -9 3 2 10 8 5 10 10 4 10 -12 0 -12 29 0 48 4 7 2 12 -5
12 -10 0 -10 3 -1 12 14 14 16 32 4 24 -10 -6 -9 25 2 42 4 6 3 12 -2 12 -11
0 -9 30 2 49 5 7 4 16 -1 20 -6 3 -8 15 -6 26 2 11 5 26 5 33 2 16 2 16 23 -8z"/>
<path d="M2456 4115 c-14 -11 -16 -15 -5 -15 12 0 12 -2 -1 -10 -8 -5 -13 -10
-10 -11 46 -8 80 -7 85 1 3 5 -3 10 -13 10 -22 0 -46 23 -35 33 11 12 -1 7
-21 -8z"/>
<path d="M2515 4060 c-3 -5 -2 -10 4 -10 5 0 13 5 16 10 3 6 2 10 -4 10 -5 0
-13 -4 -16 -10z"/>
<path d="M2600 3960 c8 -5 20 -10 25 -10 6 0 3 5 -5 10 -8 5 -19 10 -25 10 -5
0 -3 -5 5 -10z"/>
<path d="M3381 3662 c-1 -8 -6 -10 -13 -6 -10 6 -10 5 0 -8 6 -8 23 -14 37
-12 14 1 32 -4 40 -13 9 -9 15 -10 15 -3 0 6 4 9 9 5 5 -3 13 0 17 6 4 8 3 9
-4 5 -7 -4 -12 -2 -12 3 0 6 -9 11 -19 11 -11 0 -23 5 -26 10 -5 8 -11 8 -20
0 -10 -8 -14 -7 -18 2 -4 11 -6 10 -6 0z"/>
<path d="M2809 3313 c-13 -16 -12 -17 4 -4 16 13 21 21 13 21 -2 0 -10 -8 -17
-17z"/>
<path d="M2455 2580 c-3 -5 -2 -10 4 -10 5 0 13 5 16 10 3 6 2 10 -4 10 -5 0
-13 -4 -16 -10z"/>
<path d="M1298 2473 c7 -3 16 -2 19 1 4 3 -2 6 -13 5 -11 0 -14 -3 -6 -6z"/>
<path d="M1193 2444 c-5 -13 -8 -13 -15 -2 -7 10 -8 9 -4 -4 4 -12 0 -18 -11
-18 -9 0 -14 -3 -10 -6 3 -4 14 -3 24 1 10 5 31 9 46 10 16 1 34 8 40 15 10
10 8 10 -10 1 -18 -9 -23 -9 -23 0 0 8 -5 7 -17 -2 -15 -12 -16 -12 -10 4 3 9
4 17 1 17 -2 0 -7 -7 -11 -16z"/>
<path d="M1290 2456 c0 -2 7 -7 16 -10 8 -3 12 -2 9 4 -6 10 -25 14 -25 6z"/>
<path d="M1115 2380 c-3 -5 -1 -10 4 -10 6 0 11 5 11 10 0 6 -2 10 -4 10 -3 0
-8 -4 -11 -10z"/>
<path d="M1144 2373 c2 -10 6 -17 10 -16 15 3 16 11 2 22 -12 10 -14 9 -12 -6z"/>
<path d="M1155 2310 c5 -15 4 -20 -4 -16 -7 5 -9 1 -5 -9 4 -9 9 -13 12 -11 3
3 10 1 17 -4 8 -7 12 -5 12 5 0 8 -4 15 -9 15 -4 0 -8 6 -8 14 0 8 -5 18 -11
22 -8 4 -9 -1 -4 -16z"/>
<path d="M1055 2301 c-3 -5 -2 -12 3 -15 5 -3 9 1 9 9 0 17 -3 19 -12 6z"/>
<path d="M1315 2290 c3 -5 8 -10 11 -10 2 0 4 5 4 10 0 6 -5 10 -11 10 -5 0
-7 -4 -4 -10z"/>
<path d="M1195 2189 c-4 -6 -5 -12 -2 -15 2 -3 7 2 10 11 7 17 1 20 -8 4z"/>
<path d="M1180 2146 c9 -25 4 -31 -22 -27 -4 0 -4 -7 -1 -16 4 -11 8 -13 11
-5 2 7 8 12 13 12 6 0 8 -4 5 -9 -4 -5 1 -8 11 -7 18 3 26 43 10 53 -6 3 -7 1
-3 -5 4 -7 2 -12 -3 -12 -6 0 -11 6 -11 14 0 8 -4 18 -10 21 -7 4 -7 -3 0 -19z"/>
<path d="M1089 2134 c14 -30 38 -47 46 -34 4 6 3 10 -2 9 -20 -4 -27 2 -13 12
13 9 13 10 0 6 -8 -2 -21 3 -28 12 -11 14 -12 13 -3 -5z"/>
<path d="M1155 2140 c-3 -5 -1 -10 4 -10 6 0 11 5 11 10 0 6 -2 10 -4 10 -3 0
-8 -4 -11 -10z"/>
<path d="M1037 2111 c-11 -14 -10 -15 7 -1 18 14 19 13 13 -2 -3 -10 -1 -20 6
-24 7 -4 9 -4 5 1 -4 4 -3 15 2 25 12 22 -15 23 -33 1z"/>
<path d="M1339 2108 c10 -13 10 -18 2 -18 -7 0 -10 -4 -7 -9 8 -13 -34 -62
-46 -55 -7 4 -8 2 -4 -5 4 -6 11 -9 16 -6 5 3 13 -3 19 -12 10 -17 10 -17 12
2 1 11 1 24 0 28 -1 5 3 5 9 2 6 -4 9 -13 6 -21 -4 -11 -2 -11 14 -2 18 11 18
14 3 30 -12 13 -13 21 -4 31 8 11 6 18 -11 33 -19 16 -20 16 -9 2z"/>
<path d="M1246 2102 c-3 -5 1 -9 9 -9 8 0 12 4 9 9 -3 4 -7 8 -9 8 -2 0 -6 -4
-9 -8z"/>
<path d="M1084 2074 c-18 -14 -18 -15 4 -4 12 6 22 13 22 15 0 8 -5 6 -26 -11z"/>
<path d="M1417 2069 c-8 -11 -17 -17 -19 -12 -3 4 -3 2 -1 -5 1 -7 -10 -26
-26 -41 -17 -16 -27 -32 -23 -37 4 -4 -2 -4 -13 0 -11 4 -16 4 -12 0 4 -4 2
-12 -3 -19 -7 -8 -5 -12 5 -12 8 0 11 5 8 10 -3 5 0 8 6 6 7 -3 12 -8 12 -12
-2 -10 49 -57 60 -57 5 0 9 5 9 11 0 5 -4 8 -9 4 -19 -11 -23 17 -5 33 17 16
17 16 5 0 -9 -12 -10 -18 -2 -18 6 0 11 3 11 8 0 4 11 8 25 8 21 2 23 -1 14
-17 -14 -27 -4 -23 15 5 15 24 15 24 -15 21 -20 -3 -32 1 -36 10 -3 8 -9 13
-13 10 -4 -3 -10 2 -14 10 -3 8 -11 15 -17 15 -8 0 -7 -5 2 -17 12 -14 12 -16
0 -8 -11 6 -13 4 -7 -10 5 -15 4 -16 -9 -5 -11 9 -13 15 -5 20 7 4 12 11 13
16 1 5 8 8 15 7 8 0 11 5 8 14 -3 8 -1 11 4 8 5 -3 7 0 4 8 -9 23 9 26 29 5
17 -18 17 -19 0 -16 -10 2 -19 -4 -21 -15 -3 -17 -1 -17 20 -7 19 10 21 10 11
-1 -7 -7 -13 -18 -13 -23 0 -6 5 -3 11 7 6 9 14 15 20 12 5 -4 9 -1 9 4 0 6
-4 11 -8 11 -5 0 -9 7 -9 15 0 18 8 19 27 3 11 -10 11 -9 0 6 -14 18 -13 19 2
13 22 -8 32 7 14 22 -10 8 -16 8 -25 -3 -6 -8 -21 -12 -31 -9 -25 7 -26 20 -2
25 12 2 13 6 5 11 -7 4 -18 -1 -26 -14z"/>
<path d="M1115 2069 c-4 -6 -5 -12 -2 -15 2 -3 7 2 10 11 7 17 1 20 -8 4z"/>
<path d="M1180 2070 c-10 -6 -11 -10 -2 -10 6 0 11 -3 11 -7 -4 -26 1 -34 15
-21 12 11 12 14 -1 22 -13 7 -13 10 -2 17 8 5 10 9 4 9 -5 0 -17 -5 -25 -10z"/>
<path d="M1078 2043 c7 -3 16 -2 19 1 4 3 -2 6 -13 5 -11 0 -14 -3 -6 -6z"/>
<path d="M1076 2013 c-6 -14 -5 -15 5 -6 7 7 10 15 7 18 -3 3 -9 -2 -12 -12z"/>
<path d="M1130 2019 c0 -5 -4 -8 -9 -5 -5 3 -14 -1 -21 -9 -9 -11 -9 -15 -1
-15 7 0 10 -4 7 -9 -4 -5 3 -7 14 -4 22 6 38 23 21 23 -6 0 -8 7 -5 15 4 8 3
15 0 15 -3 0 -6 -5 -6 -11z m-5 -19 c3 -5 1 -10 -4 -10 -6 0 -11 5 -11 10 0 6
2 10 4 10 3 0 8 -4 11 -10z"/>
<path d="M1758 2013 c7 -3 16 -2 19 1 4 3 -2 6 -13 5 -11 0 -14 -3 -6 -6z"/>
<path d="M1156 1974 c-3 -9 -2 -12 5 -9 6 4 19 -1 30 -11 10 -9 19 -13 19 -8
1 5 7 -2 15 -16 7 -14 17 -25 22 -25 4 0 7 -5 7 -12 -1 -6 5 -9 14 -6 9 4 13
2 9 -4 -3 -5 1 -10 9 -10 11 0 9 6 -7 23 -12 12 -18 27 -15 32 3 6 -2 8 -14 5
-22 -6 -28 12 -7 21 6 3 -1 3 -16 1 -20 -3 -30 1 -35 13 -9 22 -29 25 -36 6z"/>
<path d="M1206 1982 c-3 -4 4 -9 15 -9 23 -2 25 3 4 10 -8 4 -16 3 -19 -1z"/>
<path d="M1159 1933 c-13 -16 -13 -17 4 -4 11 9 17 10 17 2 0 -22 -2 -26 -11
-23 -5 1 -4 -7 3 -18 16 -26 28 -26 23 0 -2 11 0 20 6 20 5 0 9 5 9 12 0 6 -3
8 -7 5 -3 -4 -11 0 -18 9 -10 14 -13 14 -26 -3z"/>
<path d="M1355 1911 c-3 -5 -2 -12 3 -15 5 -3 9 1 9 9 0 17 -3 19 -12 6z"/>
<path d="M1394 1869 c-3 -6 -2 -15 4 -21 6 -6 8 -18 5 -27 -4 -13 -3 -14 5 -1
8 10 8 18 1 27 -6 7 -8 17 -4 23 3 5 4 10 1 10 -3 0 -8 -5 -12 -11z"/>
<path d="M1313 1855 c0 -8 4 -12 9 -9 5 3 6 10 3 15 -9 13 -12 11 -12 -6z"/>
<path d="M1476 1853 c-6 -14 -5 -15 5 -6 7 7 10 15 7 18 -3 3 -9 -2 -12 -12z"/>
<path d="M1430 1840 c13 -24 17 -25 17 -5 0 8 -6 16 -14 19 -11 4 -11 1 -3
-14z"/>
<path d="M1355 1830 c3 -5 8 -10 11 -10 2 0 4 5 4 10 0 6 -5 10 -11 10 -5 0
-7 -4 -4 -10z"/>
<path d="M1337 1775 c-4 -8 -2 -17 3 -20 6 -4 10 3 10 14 0 25 -6 27 -13 6z"/>
<path d="M1360 1785 c0 -5 5 -17 10 -25 5 -8 10 -10 10 -5 0 6 -5 17 -10 25
-5 8 -10 11 -10 5z"/>
<path d="M2927 1621 c-4 -17 -3 -21 5 -13 5 5 8 16 6 23 -3 8 -7 3 -11 -10z"/>
</g>
</svg>
